<?xml version="1.0" encoding="UTF-8"?>
<svg id="Layer_1" data-name="Layer 1" xmlns="http://www.w3.org/2000/svg" viewBox="0 0 800 800">
  <defs>
    <style>
      .cls-1 {
        fill: #323232;
        stroke-width: 0px;
      }
    </style>
  </defs>
  <path class="cls-1" d="M440.73,110.74c71.6-71.6,187.68-71.6,259.27,0,71.6,71.6,71.6,187.68,0,259.27l-117.85,117.85c-71.6,71.6-187.68,71.6-259.27,0-6.63-6.62-12.64-13.63-18.04-20.95-8.07-10.93-5.81-25.91,3.8-35.52,15.77-15.77,43.57-9.53,58.85,6.72.83.88,1.67,1.75,2.53,2.61,45.56,45.56,119.43,45.56,164.99,0l117.85-117.85c45.56-45.56,45.56-119.43,0-164.99-45.56-45.56-119.43-45.56-164.99,0l-35.35,35.36c-13.02,13.02-34.12,13.02-47.14,0-13.02-13.02-13.02-34.12,0-47.14l35.35-35.36Z"/>
  <path class="cls-1" d="M228.6,322.88c68.13-68.13,178.94-69.51,249.72-8.79,12.75,10.94,11.71,30.2-.17,42.08-13.97,13.97-37.09,11.85-53.43.73-44.79-30.47-108.52-27.34-148.98,13.12l-117.85,117.85c-45.56,45.56-45.56,119.43,0,164.99,45.56,45.56,119.43,45.56,164.99,0l35.36-35.36c13.02-13.02,34.12-13.02,47.14,0,13.02,13.02,13.02,34.12,0,47.14l-35.36,35.35c-71.6,71.6-187.68,71.6-259.27,0-71.6-71.6-71.6-187.68,0-259.27l117.85-117.85Z"/>
</svg>